{
	"asset":{
		"generator":"Khronos glTF Blender I/O v4.5.49",
		"version":"2.0"
	},
	"scene":0,
	"scenes":[
		{
			"name":"Scene",
			"nodes":[
				1,
				31
			]
		}
	],
	"nodes":[
		{
			"mesh":0,
			"name":"\u0413\u043b\u0430\u0437\u0430",
			"rotation":[
				0.7794935703277588,
				0,
				0,
				0.6264102458953857
			],
			"translation":[
				0,
				0.03922710567712784,
				-0.298024445772171
			]
		},
		{
			"children":[
				0
			],
			"mesh":1,
			"name":"\u0421\u0443\u043c\u043a\u0430",
			"rotation":[
				0.0788223147392273,
				-0.39071330428123474,
				0.033602144569158554,
				0.9165157079696655
			],
			"translation":[
				2.2383952140808105,
				3.9313902854919434,
				-0.35029447078704834
			]
		},
		{
			"name":"Bone.004",
			"rotation":[
				-1.6403998159830735e-08,
				3.321222408203539e-08,
				0.04514237493276596,
				0.9989805221557617
			],
			"scale":[
				1.0000001192092896,
				1.0000001192092896,
				1.0000001192092896
			],
			"translation":[
				-0.7175197601318359,
				-0.06998368352651596,
				-1.1792872101068497e-07
			]
		},
		{
			"name":"Bone.005",
			"rotation":[
				7.707319227279186e-09,
				-5.752077925080812e-08,
				-0.04925848916172981,
				0.9987860918045044
			],
			"scale":[
				1,
				1,
				1.0000001192092896
			],
			"translation":[
				0.7640068531036377,
				-0.04547664895653725,
				2.421438694000244e-07
			]
		},
		{
			"name":"Bone.006",
			"rotation":[
				-0.012174317613244057,
				-1.1642395381095128e-10,
				-2.8596633949717898e-09,
				0.9999259114265442
			],
			"scale":[
				1,
				1,
				1.0000001192092896
			],
			"translation":[
				-1.1280644685029984e-07,
				-0.06063644587993622,
				-0.6139341592788696
			]
		},
		{
			"children":[
				2,
				3,
				4
			],
			"name":"Bone.003",
			"rotation":[
				0.09020069241523743,
				0.0018503153696656227,
				0.007413430605083704,
				0.9958943128585815
			],
			"scale":[
				0.9999999403953552,
				1,
				1
			],
			"translation":[
				0,
				0.2564873695373535,
				0
			]
		},
		{
			"children":[
				5
			],
			"name":"Bone.001",
			"rotation":[
				1.3330176962256246e-09,
				0,
				0,
				1
			],
			"translation":[
				0,
				0.9625802040100098,
				8.881784197001252e-16
			]
		},
		{
			"name":"Bone.008.R",
			"rotation":[
				0.0019528470002114773,
				-0.0002358820493100211,
				0.12068765610456467,
				0.9926885962486267
			],
			"scale":[
				0.9999999403953552,
				1,
				1
			],
			"translation":[
				2.2351741790771484e-08,
				0.5574709177017212,
				3.073364496231079e-08
			]
		},
		{
			"name":"Bone.009.R",
			"rotation":[
				-0.43861594796180725,
				0.05869787558913231,
				0.10963903367519379,
				0.8900280594825745
			],
			"scale":[
				1,
				1.0000001192092896,
				1
			],
			"translation":[
				-0.013332068920135498,
				0.16305850446224213,
				-0.24096909165382385
			]
		},
		{
			"children":[
				7,
				8
			],
			"name":"Bone.007.R",
			"rotation":[
				0.02232285402715206,
				0.0008283490315079689,
				-0.031577643007040024,
				0.999251663684845
			],
			"scale":[
				1,
				0.9999999403953552,
				0.9999999403953552
			],
			"translation":[
				3.725290298461914e-09,
				1.1585488319396973,
				-3.259629011154175e-08
			]
		},
		{
			"children":[
				9
			],
			"name":"Bone.006.R",
			"rotation":[
				-0.5569621324539185,
				-0.5398783087730408,
				-0.4571761190891266,
				0.4351028501987457
			],
			"scale":[
				1,
				1.0000001192092896,
				1
			],
			"translation":[
				-2.2818130673840642e-07,
				0.9176331162452698,
				-1.0244548320770264e-08
			]
		},
		{
			"children":[
				10
			],
			"name":"Bone.005.R",
			"rotation":[
				0.03122572787106037,
				-0.0064536030404269695,
				-0.2159256488084793,
				0.9758890271186829
			],
			"translation":[
				5.140900611877441e-07,
				1.006353735923767,
				2.842170943040401e-14
			]
		},
		{
			"children":[
				11
			],
			"name":"Bone.004.R",
			"rotation":[
				2.8948594632538516e-08,
				-4.3005505823145995e-09,
				0.8465344905853271,
				0.5323339104652405
			],
			"scale":[
				0.9999999403953552,
				1,
				1
			],
			"translation":[
				0,
				0.9625802040100098,
				8.881784197001252e-16
			]
		},
		{
			"name":"Bone.008.L",
			"rotation":[
				0.0019528468837961555,
				0.00023588663316331804,
				-0.12068764865398407,
				0.9926885962486267
			],
			"scale":[
				0.9999998807907104,
				0.9999999403953552,
				1
			],
			"translation":[
				7.152565899559704e-07,
				0.5574702024459839,
				7.007656677160412e-10
			]
		},
		{
			"name":"Bone.009.L",
			"rotation":[
				-0.43861594796180725,
				-0.05869787558913231,
				-0.10963901877403259,
				0.8900280594825745
			],
			"scale":[
				1,
				1,
				0.9999999403953552
			],
			"translation":[
				0.013332586735486984,
				0.1630583107471466,
				-0.24096912145614624
			]
		},
		{
			"children":[
				13,
				14
			],
			"name":"Bone.007.L",
			"rotation":[
				0.022322852164506912,
				-0.0008283440256491303,
				0.03157765045762062,
				0.999251663684845
			],
			"scale":[
				1,
				1,
				1.0000001192092896
			],
			"translation":[
				2.3815717042907636e-07,
				1.1585484743118286,
				-6.984919309616089e-10
			]
		},
		{
			"children":[
				15
			],
			"name":"Bone.006.L",
			"rotation":[
				-0.05614742636680603,
				0.0005638055154122412,
				0.015732906758785248,
				0.9982984066009521
			],
			"scale":[
				1,
				0.9999999403953552,
				1
			],
			"translation":[
				1.0932126315310597e-08,
				0.9176332354545593,
				-3.725290298461914e-09
			]
		},
		{
			"children":[
				16
			],
			"name":"Bone.005.L",
			"rotation":[
				0.03006563149392605,
				-0.010618423111736774,
				-0.31967005133628845,
				0.9469922780990601
			],
			"translation":[
				1.1920928955078125e-07,
				1.0063536167144775,
				2.4868995751603507e-14
			]
		},
		{
			"children":[
				17
			],
			"name":"Bone.004.L",
			"rotation":[
				2.8948594632538516e-08,
				4.3005505823145995e-09,
				-0.8465344905853271,
				0.5323339104652405
			],
			"scale":[
				0.9999999403953552,
				1,
				1
			],
			"translation":[
				0,
				0.9625802040100098,
				8.881784197001252e-16
			]
		},
		{
			"children":[
				6,
				12,
				18
			],
			"name":"Bone.002",
			"rotation":[
				-5.033132799425744e-10,
				0,
				0,
				1
			],
			"translation":[
				0,
				1.5464982986450195,
				2.220446049250313e-16
			]
		},
		{
			"name":"Bone.011.R",
			"rotation":[
				-0.026701048016548157,
				3.6891924537485465e-05,
				-0.02704656682908535,
				0.9992775321006775
			],
			"scale":[
				0.9999999403953552,
				1,
				0.9999999403953552
			],
			"translation":[
				-1.6763806343078613e-08,
				1.7379770278930664,
				-2.2351741790771484e-08
			]
		},
		{
			"children":[
				20
			],
			"name":"Bone.010.R",
			"rotation":[
				-0.975213885307312,
				0.011102945543825626,
				-0.2204805463552475,
				0.014930310659110546
			],
			"scale":[
				1,
				1,
				1.0000003576278687
			],
			"translation":[
				-0.5904680490493774,
				0.037403106689453125,
				2.0025608193918742e-07
			]
		},
		{
			"name":"Bone.011.L",
			"rotation":[
				-0.026701048016548157,
				-3.6891924537485465e-05,
				0.02704656682908535,
				0.9992775321006775
			],
			"scale":[
				0.9999999403953552,
				1,
				0.9999999403953552
			],
			"translation":[
				4.6566128730773926e-08,
				1.7379769086837769,
				3.725290298461914e-08
			]
		},
		{
			"children":[
				22
			],
			"name":"Bone.010.L",
			"rotation":[
				-0.975213885307312,
				-0.011102945543825626,
				0.2204805463552475,
				0.014930310659110546
			],
			"scale":[
				1,
				1,
				1.0000003576278687
			],
			"translation":[
				0.5904680490493774,
				0.037403106689453125,
				2.0025608193918742e-07
			]
		},
		{
			"name":"Bone.007.R.001",
			"rotation":[
				6.505314509297477e-09,
				-6.209570102555517e-08,
				0.15839996933937073,
				0.987375020980835
			],
			"scale":[
				1,
				0.9999999403953552,
				1
			],
			"translation":[
				-0.4354386329650879,
				0.753143310546875,
				-9.994169403171327e-08
			]
		},
		{
			"name":"Bone.007.L.001",
			"rotation":[
				6.505314509297477e-09,
				6.209570102555517e-08,
				-0.15839996933937073,
				0.987375020980835
			],
			"scale":[
				1,
				0.9999999403953552,
				1
			],
			"translation":[
				0.4354386329650879,
				0.753143310546875,
				-9.994169403171327e-08
			]
		},
		{
			"children":[
				19,
				21,
				23,
				24,
				25
			],
			"name":"Bone",
			"rotation":[
				-4.148521803859495e-10,
				0,
				0,
				1
			],
			"translation":[
				0,
				4.168820858001709,
				0
			]
		},
		{
			"name":"neutral_bone",
			"rotation":[
				-0.7071067690849304,
				0,
				0,
				0.7071067690849304
			]
		},
		{
			"mesh":2,
			"name":"\u0413\u043e\u043b\u043e\u0432\u0430",
			"skin":0
		},
		{
			"mesh":3,
			"name":"\u041f\u043b\u0430\u0441\u0442\u044b\u0440\u044c",
			"skin":0
		},
		{
			"mesh":4,
			"name":"\u0422\u0435\u043b\u043e",
			"skin":0
		},
		{
			"children":[
				28,
				29,
				30,
				26,
				27
			],
			"name":"Armature",
			"translation":[
				1.099010944366455,
				0,
				0
			]
		}
	],
	"materials":[
		{
			"doubleSided":true,
			"emissiveFactor":[
				1,
				1,
				1
			],
			"emissiveTexture":{
				"index":0
			},
			"name":"Material.001",
			"pbrMetallicRoughness":{
				"baseColorFactor":[
					0,
					0,
					0,
					1
				]
			}
		}
	],
	"meshes":[
		{
			"name":"Cylinder.003",
			"primitives":[
				{
					"attributes":{
						"POSITION":0,
						"NORMAL":1,
						"TEXCOORD_0":2
					},
					"indices":3,
					"material":0
				}
			]
		},
		{
			"name":"Cube.002",
			"primitives":[
				{
					"attributes":{
						"POSITION":4,
						"NORMAL":5,
						"TEXCOORD_0":6
					},
					"indices":7,
					"material":0
				}
			]
		},
		{
			"name":"Roundcube",
			"primitives":[
				{
					"attributes":{
						"POSITION":8,
						"NORMAL":9,
						"TEXCOORD_0":10,
						"JOINTS_0":11,
						"WEIGHTS_0":12
					},
					"indices":13,
					"material":0
				}
			]
		},
		{
			"name":"Cylinder.002",
			"primitives":[
				{
					"attributes":{
						"POSITION":15,
						"NORMAL":16,
						"TEXCOORD_0":17,
						"JOINTS_0":18,
						"WEIGHTS_0":19
					},
					"indices":20,
					"material":0
				}
			]
		},
		{
			"name":"Cylinder.001",
			"primitives":[
				{
					"attributes":{
						"POSITION":21,
						"NORMAL":22,
						"TEXCOORD_0":23,
						"JOINTS_0":24,
						"WEIGHTS_0":25
					},
					"indices":26,
					"material":0
				}
			]
		}
	],
	"textures":[
		{
			"sampler":0,
			"source":0
		}
	],
	"images":[
		{
			"mimeType":"image/png",
			"name":"texture",
			"uri":"texture.png"
		}
	],
	"skins":[
		{
			"inverseBindMatrices":14,
			"joints":[
				26,
				19,
				6,
				5,
				2,
				3,
				4,
				12,
				11,
				10,
				9,
				7,
				8,
				18,
				17,
				16,
				15,
				13,
				14,
				21,
				20,
				23,
				22,
				24,
				25,
				27
			],
			"name":"Armature"
		}
	],
	"accessors":[
		{
			"bufferView":0,
			"componentType":5126,
			"count":120,
			"max":[
				0.5146394968032837,
				0.11353468149900436,
				-0.24136656522750854
			],
			"min":[
				-0.5146394968032837,
				-0.06647530943155289,
				-0.6136273145675659
			],
			"type":"VEC3"
		},
		{
			"bufferView":1,
			"componentType":5126,
			"count":120,
			"type":"VEC3"
		},
		{
			"bufferView":2,
			"componentType":5126,
			"count":120,
			"type":"VEC2"
		},
		{
			"bufferView":3,
			"componentType":5123,
			"count":192,
			"type":"SCALAR"
		},
		{
			"bufferView":4,
			"componentType":5126,
			"count":550,
			"max":[
				0.704156756401062,
				2.8386600017547607,
				0.2960636615753174
			],
			"min":[
				-0.704156756401062,
				-0.5915055274963379,
				-0.30089277029037476
			],
			"type":"VEC3"
		},
		{
			"bufferView":5,
			"componentType":5126,
			"count":550,
			"type":"VEC3"
		},
		{
			"bufferView":6,
			"componentType":5126,
			"count":550,
			"type":"VEC2"
		},
		{
			"bufferView":7,
			"componentType":5123,
			"count":828,
			"type":"SCALAR"
		},
		{
			"bufferView":8,
			"componentType":5126,
			"count":1124,
			"max":[
				2.1483139991760254,
				8.88617992401123,
				1.1708486080169678
			],
			"min":[
				0.11595755815505981,
				6.821761131286621,
				-0.8068459630012512
			],
			"type":"VEC3"
		},
		{
			"bufferView":9,
			"componentType":5126,
			"count":1124,
			"type":"VEC3"
		},
		{
			"bufferView":10,
			"componentType":5126,
			"count":1124,
			"type":"VEC2"
		},
		{
			"bufferView":11,
			"componentType":5121,
			"count":1124,
			"type":"VEC4"
		},
		{
			"bufferView":12,
			"componentType":5126,
			"count":1124,
			"type":"VEC4"
		},
		{
			"bufferView":13,
			"componentType":5123,
			"count":1650,
			"type":"SCALAR"
		},
		{
			"bufferView":14,
			"componentType":5126,
			"count":26,
			"type":"MAT4"
		},
		{
			"bufferView":15,
			"componentType":5126,
			"count":216,
			"max":[
				0.6356609463691711,
				3.0794267654418945,
				-0.12768405675888062
			],
			"min":[
				0.07864582538604736,
				2.8644895553588867,
				-0.4941759705543518
			],
			"type":"VEC3"
		},
		{
			"bufferView":16,
			"componentType":5126,
			"count":216,
			"type":"VEC3"
		},
		{
			"bufferView":17,
			"componentType":5126,
			"count":216,
			"type":"VEC2"
		},
		{
			"bufferView":18,
			"componentType":5121,
			"count":216,
			"type":"VEC4"
		},
		{
			"bufferView":19,
			"componentType":5126,
			"count":216,
			"type":"VEC4"
		},
		{
			"bufferView":20,
			"componentType":5123,
			"count":324,
			"type":"SCALAR"
		},
		{
			"bufferView":21,
			"componentType":5126,
			"count":1796,
			"max":[
				4.939761161804199,
				6.933566093444824,
				0.6675546169281006
			],
			"min":[
				-2.741739273071289,
				0.051192283630371094,
				-1.0420565605163574
			],
			"type":"VEC3"
		},
		{
			"bufferView":22,
			"componentType":5126,
			"count":1796,
			"type":"VEC3"
		},
		{
			"bufferView":23,
			"componentType":5126,
			"count":1796,
			"type":"VEC2"
		},
		{
			"bufferView":24,
			"componentType":5121,
			"count":1796,
			"type":"VEC4"
		},
		{
			"bufferView":25,
			"componentType":5126,
			"count":1796,
			"type":"VEC4"
		},
		{
			"bufferView":26,
			"componentType":5123,
			"count":2748,
			"type":"SCALAR"
		}
	],
	"bufferViews":[
		{
			"buffer":0,
			"byteLength":1440,
			"byteOffset":0,
			"target":34962
		},
		{
			"buffer":0,
			"byteLength":1440,
			"byteOffset":1440,
			"target":34962
		},
		{
			"buffer":0,
			"byteLength":960,
			"byteOffset":2880,
			"target":34962
		},
		{
			"buffer":0,
			"byteLength":384,
			"byteOffset":3840,
			"target":34963
		},
		{
			"buffer":0,
			"byteLength":6600,
			"byteOffset":4224,
			"target":34962
		},
		{
			"buffer":0,
			"byteLength":6600,
			"byteOffset":10824,
			"target":34962
		},
		{
			"buffer":0,
			"byteLength":4400,
			"byteOffset":17424,
			"target":34962
		},
		{
			"buffer":0,
			"byteLength":1656,
			"byteOffset":21824,
			"target":34963
		},
		{
			"buffer":0,
			"byteLength":13488,
			"byteOffset":23480,
			"target":34962
		},
		{
			"buffer":0,
			"byteLength":13488,
			"byteOffset":36968,
			"target":34962
		},
		{
			"buffer":0,
			"byteLength":8992,
			"byteOffset":50456,
			"target":34962
		},
		{
			"buffer":0,
			"byteLength":4496,
			"byteOffset":59448,
			"target":34962
		},
		{
			"buffer":0,
			"byteLength":17984,
			"byteOffset":63944,
			"target":34962
		},
		{
			"buffer":0,
			"byteLength":3300,
			"byteOffset":81928,
			"target":34963
		},
		{
			"buffer":0,
			"byteLength":1664,
			"byteOffset":85228
		},
		{
			"buffer":0,
			"byteLength":2592,
			"byteOffset":86892,
			"target":34962
		},
		{
			"buffer":0,
			"byteLength":2592,
			"byteOffset":89484,
			"target":34962
		},
		{
			"buffer":0,
			"byteLength":1728,
			"byteOffset":92076,
			"target":34962
		},
		{
			"buffer":0,
			"byteLength":864,
			"byteOffset":93804,
			"target":34962
		},
		{
			"buffer":0,
			"byteLength":3456,
			"byteOffset":94668,
			"target":34962
		},
		{
			"buffer":0,
			"byteLength":648,
			"byteOffset":98124,
			"target":34963
		},
		{
			"buffer":0,
			"byteLength":21552,
			"byteOffset":98772,
			"target":34962
		},
		{
			"buffer":0,
			"byteLength":21552,
			"byteOffset":120324,
			"target":34962
		},
		{
			"buffer":0,
			"byteLength":14368,
			"byteOffset":141876,
			"target":34962
		},
		{
			"buffer":0,
			"byteLength":7184,
			"byteOffset":156244,
			"target":34962
		},
		{
			"buffer":0,
			"byteLength":28736,
			"byteOffset":163428,
			"target":34962
		},
		{
			"buffer":0,
			"byteLength":5496,
			"byteOffset":192164,
			"target":34963
		}
	],
	"samplers":[
		{
			"magFilter":9729,
			"minFilter":9987
		}
	],
	"buffers":[
		{
			"byteLength":197660,
			"uri":"Character.bin"
		}
	]
}
